<?xml version="1.0" standalone="no"?> 
<!DOCTYPE svg PUBLIC "-//W3C//DTD SVG 1.1//EN" "http://www.w3.org/Graphics/SVG/1.1/DTD/svg11.dtd" >
<svg xmlns="http://www.w3.org/2000/svg">
<defs>
  <font id="redesignFont" horiz-adv-x="40">
    <font-face font-family="redesignFont"
      units-per-em="40" ascent="40"
      descent="0" />
    <missing-glyph horiz-adv-x="0" />
    <glyph glyph-name="addCollection"
      unicode="&#xF101;"
      horiz-adv-x="40" d=" M32.0004 36C34.2084 36 36.0004 34.208 36.0004 32L36.0004 30.44C34.9364 31.398 33.5424 32 32.0004 32L8.0004 32C6.4584 32 5.0624 31.398 4.0004 30.44L4.0004 32C4.0004 34.208 5.7924 36 8.0004 36L32.0004 36zM32.0004 30C34.2084 30 36.0004 28.208 36.0004 26L36.0004 24.44C34.9364 25.398 33.5424 26 32.0004 26L8.0004 26C6.4584 26 5.0624 25.398 4.0004 24.44L4.0004 26C4.0004 28.208 5.7924 30 8.0004 30L32.0004 30zM32.001 24.0006C34.209 24.0006 36.001 22.2086 36.001 20.0006L36.001 8.0006C36.001 5.7906 34.209 4.0006 32.001 4.0006L8.001 4.0006C5.791 4.0006 4.001 5.7906 4.001 8.0006L4.001 20.0006C4.001 22.2086 5.791 24.0006 8.001 24.0006L32.001 24.0006zM25.6573845 15.5003003333333L21.4995966666667 15.5003003333333L21.501011 19.656674C21.501011 20.485403 20.8292595 21.1571545 20.0005303333333 21.1571545C19.1718011666667 21.1571545 18.5000496666667 20.485403 18.5000496666667 19.656674L18.501464 15.5003003333333L14.3436760833333 15.5003003333333C13.5149469333333 15.5003003333333 12.8431954833333 14.8285488333333 12.8431954833333 13.9998196666667C12.8431954833333 13.1710905 13.5149469333333 12.499339 14.3436760833333 12.499339L18.5000496666667 12.5007533333333L18.5000496666667 8.3429655C18.5000496666667 7.5142363333333 19.1718011666667 6.8424848333333 20.0005303333333 6.8424848333333C20.4148948333333 6.843899 20.7882473333333 7.0107761666667 21.0611905 7.2837195C21.3327195 7.5552485 21.501011 7.930015 21.501011 8.3429655L21.501011 12.5007533333333L25.6573845 12.499339C26.0717491666667 12.5007533333333 26.4451015 12.6676305 26.7180448333333 12.9405736666667C26.9895738333333 13.2121026666667 27.1578651666667 13.5868693333333 27.1578651666667 13.9998196666667C27.1578651666667 14.8285488333333 26.4861136666667 15.5003003333333 25.6573845 15.5003003333333z" />
    <glyph glyph-name="addGild"
      unicode="&#xF102;"
      horiz-adv-x="40" d=" M36.7 28.28A5.982000000000001 5.982000000000001 0 0 0 38.88 21.572L33.848 6.086A5.988 5.988 0 0 0 28.14 1.94H11.86A5.986 5.986 0 0 0 6.152 6.086L1.12 21.572A5.988 5.988 0 0 0 3.3 28.28L16.472 37.85A5.984 5.984 0 0 0 23.528 37.85zM35.074 22.808A1.994 1.994 0 0 1 34.348 25.044L21.176 34.614A1.992 1.992 0 0 1 18.824 34.614L5.652 25.044A1.9900000000000002 1.9900000000000002 0 0 1 4.926 22.808L9.956 7.322A1.9960000000000002 1.9960000000000002 0 0 1 11.86 5.94H28.14A1.992 1.992 0 0 1 30.042 7.32zM25.656 21.94A2 2 0 1 0 25.656 17.94H22V14.282A2 2 0 1 0 18 14.282V17.942H14.344A2 2 0 1 0 14.344 21.942H18V25.596A2 2 0 1 0 22 25.596V21.94z" />
    <glyph glyph-name="addGildDashed"
      unicode="&#xF103;"
      horiz-adv-x="40" d=" M22.002 17.95V14.292A2 2 0 1 0 18.002 14.292V17.952H14.346A2 2 0 1 0 14.346 21.952H18.002V25.606A2 2 0 1 0 22.002 25.606V21.948H25.658A2 2 0 1 0 25.658 17.948zM28.52 5.954A1.976 1.976 0 1 0 29.254 2.066A6.22 6.22 0 0 0 28.092 1.956H23.856A1.98 1.98 0 0 0 23.856 5.916H28.092C28.238 5.916 28.382 5.928 28.52 5.956zM35.474 17.04A1.98 1.98 0 0 0 36.744 14.546L34.88 8.806A1.98 1.98 0 1 0 31.116 10.028L32.98 15.768A1.972 1.972 0 0 0 35.474 17.04zM36.68 28.394A6.273999999999999 6.273999999999999 0 0 0 38.992 21.466A1.98 1.98 0 0 0 35.21 22.63A2.324 2.324 0 0 1 34.352 25.19L33.79 25.6A1.978 1.978 0 1 0 36.114 28.804zM27.928 29.86L23.046 33.406A1.98 1.98 0 1 0 25.372 36.608L30.252 33.062A1.978 1.978 0 1 0 27.928 29.862zM16.22 5.916A1.98 1.98 0 0 0 16.22 1.956H11.984C11.588 1.956 11.2 1.994 10.822 2.066A1.98 1.98 0 0 0 11.554 5.956C11.694 5.93 11.838 5.916 11.984 5.916zM7.094 15.768L8.96 10.028A1.978 1.978 0 1 0 5.196 8.808L3.33 14.548A1.98 1.98 0 0 0 7.094 15.768zM4.866 22.63A1.976 1.976 0 1 0 1.084 21.466A6.263999999999999 6.263999999999999 0 0 0 0.804 23.31C0.804 25.312 1.774 27.214 3.396 28.394L3.962 28.804A1.978 1.978 0 1 0 6.286 25.6L5.724 25.192A2.324 2.324 0 0 1 4.864 22.632zM10.986 29.482A1.98 1.98 0 0 0 9.82 33.062L14.704 36.608A1.978 1.978 0 1 0 17.03 33.408L12.15 29.86A1.98 1.98 0 0 0 10.986 29.482z" />
    <glyph glyph-name="admin"
      unicode="&#xF104;"
      horiz-adv-x="40" d=" M39.98 19.875C39.98 22.29125 38.02125 24.25 35.605 24.25C34.42625 24.25 33.3575 23.78125 32.57125 23.0225C29.615 25.155 25.55375 26.54 21.02875 26.72625L22.98375 35.925L29.39125 34.5625C29.55 32.98625 30.86625 31.75 32.485 31.75C34.21125 31.75 35.61 33.14875 35.61 34.875C35.61 36.60125 34.21125 38 32.485 38C31.315 38 30.30875 37.35 29.7725 36.39875L22.45625 37.95375C22.2125 38.0075 21.96 37.95875 21.75125 37.82375C21.5425 37.6875 21.39625 37.475 21.345 37.2325L19.11375 26.735C14.52 26.57875 10.395 25.1875 7.4 23.03C6.61375 23.78375 5.55 24.25 4.375 24.25C1.95875 24.25 0 22.29125 0 19.875C0 18.0975 1.06125 16.57 2.585 15.88625C2.5175 15.45125 2.48 15.01 2.48 14.5625C2.48 7.83125 10.315 2.375 19.98 2.375C29.645 2.375 37.48 7.83125 37.48 14.5625C37.48 15.00625 37.44375 15.445 37.3775 15.8775C38.91 16.5575 39.98 18.09 39.98 19.875" />
    <glyph glyph-name="approve"
      unicode="&#xF105;"
      horiz-adv-x="40" d=" M35.293 35.5276C34.499 36.1976 33.323 36.1516 32.585 35.4156L13.605 16.4356L6.895 19.7896C6.081 20.1976 5.101 20.0056 4.501 19.3236C3.901 18.6456 3.833 17.6476 4.335 16.8916L12.335 4.8916C12.701 4.3456 13.311 4.0116 13.967 4.0016L14.001 4.0016C14.645 4.0016 15.251 4.3136 15.627 4.8396L35.627 32.8396C36.233 33.6856 36.087 34.8556 35.293 35.5276" />
    <glyph glyph-name="archived"
      unicode="&#xF106;"
      horiz-adv-x="40" d=" M3.3333333333333 40H36.6666666666667A3.3333333333333335 3.3333333333333335 0 0 0 40 36.6666666666667V33.3333333333333A3.3333333333333335 3.3333333333333335 0 0 0 36.6666666666667 30H3.3333333333333A3.3333333333333335 3.3333333333333335 0 0 0 0 33.3333333333333V36.6666666666667A3.3333333333333335 3.3333333333333335 0 0 0 3.3333333333333 40z M33.3333333333333 26.6666666666667H6.6666666666667A3.3333333333333335 3.3333333333333335 0 0 1 3.3333333333333 23.3333333333333V3.3333333333333A3.3333333333333335 3.3333333333333335 0 0 1 6.6666666666667 0H33.3333333333333A3.3333333333333335 3.3333333333333335 0 0 1 36.6666666666667 3.3333333333333V23.3333333333333A3.3333333333333335 3.3333333333333335 0 0 1 33.3333333333333 26.6666666666667zM26.6666666666667 16.6666666666667H13.3333333333333A1.6666666666666667 1.6666666666666667 0 0 0 13.3333333333333 20H26.6666666666667A1.6666666666666667 1.6666666666666667 0 0 0 26.6666666666667 16.6666666666667z" />
    <glyph glyph-name="calendar"
      unicode="&#xF107;"
      horiz-adv-x="40" d=" M34 32C35.104 32 36 31.104 36 30L36 24L36 6C36 4.896 35.104 4 34 4L6 4C4.896 4 4 4.896 4 6L4 24L4 30C4 31.104 4.896 32 6 32L10 32L10 34C10 35.104 10.896 36 12 36C13.104 36 14 35.104 14 34L14 32L26 32L26 34C26 35.104 26.896 36 28 36C29.104 36 30 35.104 30 34L30 32L34 32zM8 8L32 8L32 22L8 22L8 8z" />
    <glyph glyph-name="chevronCollapse"
      unicode="&#xF108;"
      horiz-adv-x="40" d=" M0.5566666666667 20C0.5566666666667 9.26 9.2566666666667 0.5566666666667 20 0.5566666666667C30.74 0.5566666666667 39.4433333333333 9.2566666666667 39.4433333333333 20C39.4433333333333 30.74 30.7433333333333 39.4433333333333 20 39.4433333333333C9.26 39.4433333333333 0.5566666666667 30.7433333333333 0.5566666666667 20zM20 21.9533333333333L12.3566666666667 14.31C11.0566666666667 13.01 8.9433333333333 13.01 7.6433333333333 14.31C6.3433333333333 15.61 6.3433333333333 17.7233333333333 7.6433333333333 19.0233333333333L17.6433333333333 29.0233333333333C18.9433333333333 30.3233333333333 21.0566666666667 30.3233333333333 22.3566666666667 29.0233333333333L32.3566666666667 19.0233333333333C33.6566666666667 17.7233333333333 33.6566666666667 15.61 32.3566666666667 14.31C31.0566666666667 13.01 28.9433333333333 13.01 27.6433333333333 14.31L20 21.9533333333333z" />
    <glyph glyph-name="clear"
      unicode="&#xF109;"
      horiz-adv-x="40" d=" M20 37.5C10.3 37.5 2.5 29.7 2.5 20C2.5 10.3 10.3 2.5 20 2.5S37.5 10.3 37.5 20C37.5 29.7 29.7 37.5 20 37.5zM24.2 12.3L20 16.5L15.8 12.3C14.7 11.2 13.3 11.2 12.3 12.3C11.2 13.4 11.2 14.7 12.3 15.8L16.5 20L12.3 24.2C11.2 25.3 11.2 26.7 12.3 27.7C13.4 28.8 14.7 28.8 15.8 27.7L20 23.5L24.2 27.7C25.3 28.8 26.7 28.8 27.7 27.7C28.8 26.6 28.8 25.3 27.7 24.2L23.5 20L27.7 15.8C28.8 14.7 28.8 13.3 27.7 12.3C26.7 11.2 25.3 11.2 24.2 12.3z" />
    <glyph glyph-name="coin"
      unicode="&#xF10A;"
      horiz-adv-x="40" d=" M20 37C29.374 37 37 29.374 37 20C37 10.626 29.374 3 20 3C10.628 3 3 10.626 3 20C3 29.374 10.628 37 20 37zM15.758 15.756C13.418 18.096 13.418 21.902 15.758 24.242C18.024 26.508 21.976 26.508 24.242 24.242C25.024 23.462 26.29 23.462 27.07 24.242C27.852 25.022 27.852 26.29 27.07 27.07C25.182 28.96 22.672 30 20 30C17.328 30 14.818 28.96 12.93 27.07C9.032 23.172 9.032 16.828 12.93 12.928C14.818 11.04 17.328 10 20 10C22.672 10 25.182 11.04 27.07 12.928C27.852 13.71 27.852 14.976 27.07 15.756C26.29 16.538 25.024 16.538 24.242 15.756C21.976 13.49 18.024 13.49 15.758 15.756z" />
    <glyph glyph-name="collection"
      unicode="&#xF10B;"
      horiz-adv-x="40" d=" M32.0004 36C34.2084 36 36.0004 34.208 36.0004 32L36.0004 30.44C34.9364 31.398 33.5424 32 32.0004 32L8.0004 32C6.4584 32 5.0624 31.398 4.0004 30.44L4.0004 32C4.0004 34.208 5.7924 36 8.0004 36L32.0004 36zM32.0004 30C34.2084 30 36.0004 28.208 36.0004 26L36.0004 24.44C34.9364 25.398 33.5424 26 32.0004 26L8.0004 26C6.4584 26 5.0624 25.398 4.0004 24.44L4.0004 26C4.0004 28.208 5.7924 30 8.0004 30L32.0004 30zM32.001 24.0006C34.209 24.0006 36.001 22.2086 36.001 20.0006L36.001 8.0006C36.001 5.7906 34.209 4.0006 32.001 4.0006L8.001 4.0006C5.791 4.0006 4.001 5.7906 4.001 8.0006L4.001 20.0006C4.001 22.2086 5.791 24.0006 8.001 24.0006L32.001 24.0006z" />
    <glyph glyph-name="comment"
      unicode="&#xF10C;"
      horiz-adv-x="40" d=" M32 36L8 36C5.79 36 4 34.21 4 32L4 14C4 11.79 5.79 10 8 10L15.08 10L20 3.208L24.92 10L32 10C34.21 10 36 11.79 36 14L36 32C36 34.21 34.21 36 32 36" />
    <glyph glyph-name="create"
      unicode="&#xF10D;"
      horiz-adv-x="40" d=" M10 10C8.896 10 8 10.894 8 12L8 17.656C8 18.188 8.21 18.696 8.586 19.07L24.758 35.242C25.54 36.024 26.804 36.024 27.586 35.242L33.242 29.586C34.024 28.804 34.024 27.54 33.242 26.758L17.072 10.586C16.696 10.21 16.188 10 15.658 10L10 10zM34 8C35.104 8 36 7.106 36 6C36 4.894 35.104 4 34 4L6 4C4.896 4 4 4.894 4 6C4 7.106 4.896 8 6 8L34 8z" />
    <glyph glyph-name="crosspost"
      unicode="&#xF10E;"
      horiz-adv-x="40" d=" M38 12.68L33.16 17.52C32.468 18.212 31.428 18.42 30.52 18.04C29.62 17.668 29.028 16.784 29.028 15.808V13.388H28.2C26.26 13.388 24.44 14.14 23.068 15.508L18.668 19.908C17.476 18.748 16.108 17.812 14.612 17.128L19.652 12.088C21.932 9.808 24.972 8.548 28.2 8.548H29.028V6.128C29.028 5.152 29.62 4.268 30.524 3.896C30.828 3.776 31.144 3.712 31.452 3.712C32.084 3.712 32.7 3.952 33.164 4.42L38.004 9.26L39.712 10.968L38 12.68zM23.068 28.2C24.44 29.568 26.26 30.32 28.2 30.32H29.032V27.904C29.032 26.928 29.62 26.044 30.524 25.664C30.828 25.544 31.14 25.484 31.452 25.484C32.084 25.484 32.7 25.732 33.164 26.196L38.004 31.036C38.224 31.256 38.404 31.528 38.524 31.82C38.764 32.412 38.764 33.08 38.524 33.668C38.404 33.964 38.224 34.228 38.004 34.456L33.16 39.292C32.464 39.984 31.428 40.192 30.52 39.812C29.624 39.44 29.04 38.56 29.04 37.584V35.164H28.2C24.968 35.164 21.932 33.904 19.58 31.548L13.92 25.408C12.56 23.916 10.608 23.064 8.584 23.064H2.424C1.084 23.064 0 21.984 0 20.644C0 19.316 1.08 18.232 2.42 18.232H8.58C11.96 18.232 15.204 19.652 17.484 22.132L23.072 28.2z" />
    <glyph glyph-name="distinguishShield"
      unicode="&#xF10F;"
      horiz-adv-x="40" d=" M30.1524 19.4648L27.1224 18.5988C24.3364 17.8048 22.1944 15.6648 21.4004 12.8768L20.5344 9.8468C20.4664 9.6088 20.2484 9.4448 20.0004 9.4448C19.7524 9.4448 19.5324 9.6088 19.4644 9.8468L18.6004 12.8768C17.8044 15.6648 15.6644 17.8048 12.8764 18.5988L9.8484 19.4648C9.6104 19.5328 9.4444 19.7528 9.4444 20.0008C9.4444 20.2488 9.6104 20.4668 9.8484 20.5348L12.8764 21.4008C15.6644 22.1948 17.8044 24.3368 18.6004 27.1228L19.4644 30.1528C19.6024 30.6288 20.3984 30.6288 20.5344 30.1528L21.4004 27.1228C22.1944 24.3368 24.3364 22.1948 27.1224 21.4008L30.1524 20.5348C30.3904 20.4668 30.5544 20.2488 30.5544 20.0008C30.5544 19.7528 30.3904 19.5328 30.1524 19.4648M34.5484 33.9228L20.5484 37.9228C20.1904 38.0248 19.8104 38.0248 19.4504 37.9228L5.4504 33.9228C4.5924 33.6768 4.0004 32.8928 4.0004 32.0008L4.0004 18.0008C4.0004 6.6228 18.8204 2.2568 19.4504 2.0768C19.6304 2.0248 19.8144 2.0008 20.0004 2.0008C20.1864 2.0008 20.3684 2.0248 20.5484 2.0768C21.1804 2.2568 36.0004 6.6228 36.0004 18.0008L36.0004 32.0008C36.0004 32.8928 35.4084 33.6768 34.5484 33.9228" />
    <glyph glyph-name="downvote"
      unicode="&#xF110;"
      horiz-adv-x="40" d=" M35.52 20.8A2 2 0 0 1 33.68 22H26V35A1 1 0 0 1 25 36H15A1 1 0 0 1 14 35V22H6.32A2 2 0 0 1 4.86 18.62L19.28 3.3A1 1 0 0 1 20.74 3.3L35.16 18.62A2 2 0 0 1 35.52 20.8z" />
    <glyph glyph-name="dropdownTriangle"
      unicode="&#xF111;"
      horiz-adv-x="40" d=" M28.3423198 21.293L19.99851272 12.942L11.65470566 21.293C11.0252483 21.923 11.47086414 23 12.3610967 23L27.6359288 23C28.5261614 23 28.9717772 21.923 28.3423198 21.293" />
    <glyph glyph-name="embed"
      unicode="&#xF112;"
      horiz-adv-x="40" d=" M30 10A2.0000000000000004 2.0000000000000004 0 0 0 28.2125 12.895L31.7625 19.9975L28.21 27.105A2.0000000000000004 2.0000000000000004 0 0 0 31.79 28.8925L35.79 20.8925A2.0075000000000003 2.0075000000000003 0 0 0 35.79 19.105L31.79 11.105A2.0000000000000004 2.0000000000000004 0 0 0 29.9975 9.9975zM10 10A2.0000000000000004 2.0000000000000004 0 0 0 8.21 11.105L4.21 19.105A2.0075000000000003 2.0075000000000003 0 0 0 4.21 20.8925L8.21 28.8925A2.0000000000000004 2.0000000000000004 0 0 0 11.79 27.105L8.235 19.9975L11.79 12.8925A2.0000000000000004 2.0000000000000004 0 0 0 10.0025 10zM17.1 6A2.0000000000000004 2.0000000000000004 0 0 0 15.155 8.47L20.96 32.47A2.0000000000000004 2.0000000000000004 0 1 0 24.845 31.5275L19.0425 7.5275A2.0000000000000004 2.0000000000000004 0 0 0 17.1 5.9975z" />
    <glyph glyph-name="envelope"
      unicode="&#xF113;"
      horiz-adv-x="40" d=" M16.2169999 21.687L5.5999999 32.304C6.3449999 32.743 7.2099999 33 8.1369999 33L33.137 33C34.063 33 34.928 32.743 35.673 32.304L25.056 21.687C22.62 19.25 18.6539999 19.25 16.2169999 21.687zM26.287 19.383L36.904 30C37.343 29.255 37.6 28.39 37.6 27.463L37.6 12.463C37.6 9.702 35.361 7.463 32.6 7.463L7.5999999 7.463C4.8379999 7.463 2.5999999 9.702 2.5999999 12.463L2.5999999 27.463C2.5999999 28.39 2.8569999 29.255 3.2959999 30L13.9129999 19.383C15.6189999 17.677 17.8589999 16.824 20.1 16.824C22.34 16.824 24.581 17.677 26.287 19.383z" />
    <glyph glyph-name="expand"
      unicode="&#xF114;"
      horiz-adv-x="40" d=" M21.5 21.5L28.5 21.5C29.3284272 21.5 30 20.82842712 30 20C30 19.1715728 29.3284272 18.5 28.5 18.5L21.5 18.5L21.5 11.5C21.5 10.6715728 20.8284272 10 20 10C19.17157288 10 18.5 10.6715728 18.5 11.5L18.5 18.5L11.5 18.5C10.67157288 18.5 10 19.1715728 10 20C10 20.82842712 10.67157288 21.5 11.5 21.5L18.5 21.5L18.5 28.5C18.5 29.32842712 19.17157288 30 20 30C20.8284272 30 21.5 29.32842712 21.5 28.5L21.5 21.5zM20 38C10.07458824 38 2 29.92541176 2 20C2 10.0767058 10.07458824 2 20 2C29.9254118 2 38 10.0767058 38 20C38 29.92541176 29.9254118 38 20 38" />
    <glyph glyph-name="expandoArrowCollapse"
      unicode="&#xF115;"
      horiz-adv-x="40" d=" M31.0342857142857 12.5L39.14 4.3942857142857A2.4971428571428578 2.4971428571428578 0 1 0 35.6057142857143 0.86L27.5 8.9657142857143V2.5A2.5 2.5 0 1 0 22.5 2.5V15C22.5 16.38 23.6171428571429 17.5 25 17.5H37.5A2.5 2.5 0 1 0 37.5 12.5H31.0342857142857zM15 40C16.3828571428571 40 17.5 38.88 17.5 37.5V25A2.5 2.5 0 0 0 15 22.5H2.5A2.5 2.5 0 1 0 2.5 27.5H8.9657142857143L0.8571428571429 35.6057142857143A2.4971428571428578 2.4971428571428578 0 1 0 4.3914285714286 39.14L12.4971428571429 31.0342857142857V37.5C12.4971428571429 38.88 13.6142857142857 40 14.9971428571429 40z" />
    <glyph glyph-name="expandoArrowExpand"
      unicode="&#xF116;"
      horiz-adv-x="40" d=" M17.5 37.5A2.5 2.5 0 0 0 15 35H8.5342857142857L16.64 26.8942857142857A2.4971428571428578 2.4971428571428578 0 1 0 13.1057142857143 23.36L5 31.4657142857143V25A2.5 2.5 0 1 0 0 25V37.5C0 38.88 1.1171428571429 40 2.5 40H15C16.3828571428571 40 17.5 38.88 17.5 37.5zM37.5 17.5C38.8828571428571 17.5 40 16.38 40 15V2.5A2.5 2.5 0 0 0 37.5 0H25A2.5 2.5 0 1 0 25 5H31.4657142857143L23.36 13.1057142857143A2.4971428571428578 2.4971428571428578 0 1 0 26.8942857142857 16.64L35 8.5342857142857V15C35 16.38 36.1171428571429 17.5 37.5 17.5z" />
    <glyph glyph-name="expandoMediaGif"
      unicode="&#xF117;"
      horiz-adv-x="40" d=" M0 20C0 31.045695 8.95187636 40 20 40C31.045695 40 40 31.04812364 40 20C40 8.954305 31.0481236 0 20 0C8.954305 0 0 8.9518764 0 20zM27.55916 22.4L25.54976 22.4L25.54976 20.6L27.20336 20.6C27.79316 20.6 28.08776 20.1296 28.08776 19.712C28.08776 19.2824 27.79316 18.8 27.20336 18.8L25.54976 18.8L25.54976 16.3154C25.54976 15.7016 25.17836 15.3578 24.64976 15.3578C24.12176 15.3578 23.74976 15.7016 23.74976 16.3154L23.74976 23.2154C23.74976 23.7188 23.80256 24.2 24.41576 24.2L27.55916 24.2C28.09976 24.2 28.38236 23.7296 28.38236 23.3C28.38236 22.8824 28.11176 22.4 27.55916 22.4zM22.54976 16.3154C22.54976 15.7016 22.17776 15.3578 21.65036 15.3578C21.12236 15.3578 20.74976 15.7016 20.74976 16.3154L20.74976 23.2892C20.74976 23.903 21.12236 24.2468 21.65036 24.2468C22.17776 24.2468 22.54976 23.903 22.54976 23.2892L22.54976 16.3154zM15.74876 15.284C13.25636 15.284 11.52476 17.2604 11.52476 19.8026C11.52476 22.3562 13.24376 24.3206 15.74876 24.3206C17.60276 24.3206 19.12496 23.4488 19.12496 22.5896C19.12496 22.0616 18.79376 21.7298 18.36416 21.7298C17.52896 21.7298 17.35736 22.6262 15.74876 22.6262C14.21396 22.6262 13.44056 21.2882 13.44056 19.8026C13.44056 18.3044 14.18936 16.919 15.74876 16.919C16.71896 16.919 17.83616 17.6 17.83616 18.8L16.58396 18.8C16.08056 18.8 15.72416 19.2092 15.72416 19.712C15.72416 20.228 16.11716 20.6 16.58396 20.6L18.67136 20.6C19.44416 20.6 19.75136 20.2136 19.75136 19.4276C19.75136 17.0576 18.20456 15.284 15.74876 15.284zM30.34976 24.2C30.34976 25.8566 29.00696 27.2 27.34976 27.2L12.34976 27.2C10.69316 27.2 9.34976 25.8566 9.34976 24.2L9.34976 15.2C9.34976 13.5434 10.69316 12.2 12.34976 12.2L27.34976 12.2C29.00696 12.2 30.34976 13.5434 30.34976 15.2L30.34976 24.2z" />
    <glyph glyph-name="expandoMediaImage"
      unicode="&#xF118;"
      horiz-adv-x="40" d=" M0 20C0 31.045695 8.95187636 40 20 40C31.045695 40 40 31.04812364 40 20C40 8.954305 31.0481236 0 20 0C8.954305 0 0 8.9518764 0 20zM27.9281418 21.5C27.3048796 21.5 26.8001336 22.0034 26.8001336 22.625C26.8001336 23.2466 27.3048796 23.75 27.9281418 23.75C28.5514038 23.75 29.0561498 23.2466 29.0561498 22.625C29.0561498 22.0034 28.5514038 21.5 27.9281418 21.5zM20.0320856 14.75C17.54024064 14.75 15.52005348 16.7648 15.52005348 19.25C15.52005348 21.7352 17.54024064 23.75 20.0320856 23.75C22.5239304 23.75 24.5441176 21.7352 24.5441176 19.25C24.5441176 16.7648 22.5239304 14.75 20.0320856 14.75zM29.700468 26.6L25.296123 26.6C25.296123 27.8 24.6229278 28.4 23.7921122 28.4L16.27205882 28.4C15.44124332 28.4 14.76804812 27.8 14.76804812 26.6L10.3637032 26.6C9.47332888 26.6 8.60160428 26.0786 8.60160428 25.25L8.60160428 13.25C8.60160428 12.4214 9.47332888 11.6 10.3637032 11.6L29.700468 11.6C30.5908422 11.6 31.4625668 12.4214 31.4625668 13.25L31.4625668 25.25C31.4625668 26.0786 30.5908422 26.6 29.700468 26.6z" />
    <glyph glyph-name="expandoMediaLightbox"
      unicode="&#xF119;"
      horiz-adv-x="40" d=" M33.7507692307692 25.6246153846154H26.2461538461538A1.2492307692307694 1.2492307692307694 0 0 0 26.2461538461538 28.1261538461538H33.7476923076923A1.2492307692307694 1.2492307692307694 0 0 0 33.7476923076923 25.6246153846154zM33.7507692307692 18.7507692307692H26.2461538461538A1.2492307692307694 1.2492307692307694 0 0 0 26.2461538461538 21.2492307692308H33.7476923076923A1.2492307692307694 1.2492307692307694 0 0 0 33.7476923076923 18.7507692307692zM33.7507692307692 11.8738461538462H6.2461538461538A1.2492307692307694 1.2492307692307694 0 0 0 6.2461538461538 14.3753846153846H33.7476923076923A1.2492307692307694 1.2492307692307694 0 0 0 33.7476923076923 11.8738461538462zM6.2461538461538 5A1.2492307692307694 1.2492307692307694 0 0 0 6.2461538461538 7.5015384615385H33.7476923076923A1.2492307692307694 1.2492307692307694 0 0 0 33.7476923076923 5H6.2461538461538zM4.9969230769231 33.7507692307692C4.9969230769231 34.44 5.5569230769231 35 6.2461538461538 35H19.5292307692308C20.2184615384615 35 20.7784615384615 34.44 20.7784615384615 33.7507692307692V20A1.2492307692307694 1.2492307692307694 0 0 0 19.5292307692308 18.7507692307692H6.2492307692308A1.2492307692307694 1.2492307692307694 0 0 0 5 20V33.7507692307692zM2.4984615384615 40A2.4984615384615387 2.4984615384615387 0 0 1 0 37.4984615384615V2.4984615384615C0 1.1169230769231 1.1169230769231 0 2.5015384615385 0H37.5015384615385C38.8830769230769 0 40 1.1169230769231 40 2.5015384615385V37.4984615384615A2.4984615384615387 2.4984615384615387 0 0 1 37.4984615384615 40H2.5015384615385z" />
    <glyph glyph-name="expandoMediaLink"
      unicode="&#xF11A;"
      horiz-adv-x="40" d=" M0 20C0 31.045695 8.95187636 40 20 40C31.045695 40 40 31.04812364 40 20C40 8.954305 31.0481236 0 20 0C8.954305 0 0 8.9518764 0 20zM18.92225 26.32775C18.22025 25.62515 17.75525 24.73055 17.56985 23.76095C18.40565 23.70875 19.23065 23.48915 19.99325 23.10215C20.05625 23.65535 20.29925 24.16895 20.68985 24.56015L22.51085 26.38115C23.47085 27.34115 25.03325 27.34115 25.99325 26.38115L26.04665 26.32775C27.00665 25.36775 27.00665 23.80535 26.04665 22.84535L24.22565 21.02435C23.26565 20.06435 21.70325 20.06435 20.74325 21.02435L20.68985 21.07775C18.75545 23.01275 15.60725 23.01275 13.67225 21.07775L11.85125 19.25675C9.91625 17.32175 9.91625 14.17355 11.85125 12.23855L11.90465 12.18575C13.83905 10.25075 16.98725 10.25075 18.92225 12.18575L20.74325 14.00675C21.44585 14.70875 21.91025 15.60395 22.09565 16.57355C21.25985 16.62575 20.43485 16.84535 19.67225 17.23235C19.60925 16.67915 19.36625 16.16555 18.97565 15.77435L17.15465 13.95335C16.19465 12.99335 14.63225 12.99335 13.67225 13.95335L13.61885 14.00675C12.65885 14.96675 12.65885 16.52915 13.61885 17.48915L15.43985 19.31015C16.39985 20.27015 17.96225 20.27015 18.92225 19.31015L18.97565 19.25675C20.91005 17.32175 24.05825 17.32175 25.99325 19.25675L27.81425 21.07775C29.74925 23.01275 29.74925 26.16095 27.81425 28.09535L27.76085 28.14875C25.82645 30.08375 22.67825 30.08375 20.74325 28.14875L18.92225 26.32775z" />
    <glyph glyph-name="expandoMediaText"
      unicode="&#xF11B;"
      horiz-adv-x="40" d=" M0 20C0 31.045695 8.95187636 40 20 40C31.045695 40 40 31.04812364 40 20C40 8.954305 31.0481236 0 20 0C8.954305 0 0 8.9518764 0 20zM12.2 23.75L12.2 24.95L27.2 24.95L27.2 23.75L12.2 23.75zM12.2 20.75L12.2 21.95L27.2 21.95L27.2 20.75L12.2 20.75zM12.2 17.75L12.2 18.95L27.2 18.95L27.2 17.75L12.2 17.75zM12.2 14.75L12.2 15.95L19.7 15.95L19.7 14.75L12.2 14.75zM27.2 29L12.2 29C10.5434 29 9.2 27.6566 9.2 26L9.2 14C9.2 12.3428 10.5434 11 12.2 11L18.2 11L19.7 9.5L21.2 11L27.2 11C28.8572 11 30.2 12.3428 30.2 14L30.2 26C30.2 27.6566 28.8572 29 27.2 29z" />
    <glyph glyph-name="expandoMediaVideo"
      unicode="&#xF11C;"
      horiz-adv-x="40" d=" M0 20C0 31.045695 8.95187636 40 20 40C31.045695 40 40 31.04812364 40 20C40 8.954305 31.0481236 0 20 0C8.954305 0 0 8.9518764 0 20zM12.93870192 20.00018028L12.93870192 10.9322716C12.93870192 9.818089 14.14483174 9.1221754 15.109375 9.6792668L22.9555288 14.2129206L30.8040866 18.7471754C31.7680288 19.3042668 31.7680288 20.69609374 30.8034856 21.2531851L22.953125 25.7874399L15.109375 30.32049278C14.14483174 30.8781851 12.93870192 30.18167068 12.93870192 29.06808894L12.93870192 20.00018028z" />
    <glyph glyph-name="gif"
      unicode="&#xF11D;"
      horiz-adv-x="40" d=" M35 40H5C2.2 40 0 37.8 0 35V5C0 2.2 2.2 0 5 0H35C37.8 0 40 2.2 40 5V35C40 37.8 37.8 40 35 40zM17.2 14.4H15.2V16H15.2C15 15.4 14 14.2 12.4 14.2C9 14.2 7.6 16.6 7.6 20C7.6 23.4 9.6 25.8 12.6 25.8C14.6 25.8 16.4 25 17 22.2L14.8 21.6C14.4 23.2 13.6 23.8 12.6 23.8C11.6 23.8 10 23.2 10 20C10 16.8 11.6 16.2 12.6 16.2C13.8 16.2 14.6 17 14.8 18.2H12.8V20H17V14.4zM22.8 14.4H20.4V25.6H22.8V14.4zM33.2 23.6H28.4V21H31.8V19H28.4V14.6H26V25.6H33.4V23.6z" />
    <glyph glyph-name="gild"
      unicode="&#xF11E;"
      horiz-adv-x="40" d=" M30.2551536 22.013L26.1371536 17.605L26.8791536 11.621C26.9231536 11.259 26.7691536 10.903 26.4731536 10.689C26.2991536 10.561 26.0931536 10.497 25.8851536 10.497C25.7411536 10.497 25.5971536 10.529 25.4631536 10.591L19.99915354 13.145L14.53715354 10.591C14.20915354 10.439 13.81915354 10.473 13.52515354 10.689C13.22915354 10.903 13.07515354 11.259 13.12115354 11.621L13.86115354 17.605L9.74315354 22.013C9.49515354 22.279 9.41115354 22.659 9.52315354 23.005S9.92715354 23.609 10.28515354 23.677L16.20515354 24.823L19.12515354 30.101C19.47515354 30.737 20.5231536 30.737 20.8751536 30.101L23.7951536 24.823L29.7131536 23.677C30.0711536 23.609 30.3631536 23.351 30.4751536 23.005S30.5031536 22.279 30.2551536 22.013M36.0771536 27.983L22.9051536 37.555C21.1671536 38.815 18.83115354 38.815 17.09315354 37.555V37.553L3.92115354 27.983C2.18315354 26.721 1.46115354 24.499 2.12515354 22.455L7.15515354 6.969C7.81915354 4.927 9.71115354 3.553 11.85915354 3.553H28.1391536C30.2891536 3.553 32.1791536 4.927 32.8431536 6.969L37.8751536 22.455C38.5391536 24.499 37.8151536 26.721 36.0771536 27.983" />
    <glyph glyph-name="hide"
      unicode="&#xF11F;"
      horiz-adv-x="40" d=" M20 37.5C10.3 37.5 2.5 29.7 2.5 20S10.3 2.5 20 2.5S37.5 10.3 37.5 20S29.7 37.5 20 37.5zM7.5 20C7.5 26.9 13.1 32.5 20 32.5C22.5 32.5 24.9 31.7 26.9 30.4L9.6 13.1C8.3 15.1 7.5 17.5 7.5 20zM20 7.5C17.5 7.5 15.1 8.3 13.1 9.6L30.4 26.9C31.7 24.9 32.5 22.6 32.5 20C32.5 13.1 26.9 7.5 20 7.5z" />
    <glyph glyph-name="ignoreReport"
      unicode="&#xF120;"
      horiz-adv-x="40" d=" M5.999 22.4356L5.999 27.1716L20.781 12.3916L9.999 12.3916L9.999 5.9996C9.999 4.8936 9.103 3.9996 7.999 3.9996C6.895 3.9996 5.999 4.8936 5.999 5.9996L5.999 14.3916L5.999 22.4356zM35.414 7.414C36.196 6.632 36.196 5.368 35.414 4.586C35.024 4.196 34.512 4 34 4C33.488 4 32.976 4.196 32.586 4.586L31.872 5.298C31.872 5.3 31.874 5.3 31.874 5.3L30.442 6.73L24.782 12.39L24.766 12.39L4.586 32.586C3.804 33.368 3.804 34.632 4.586 35.414C5.368 36.196 6.632 36.196 7.414 35.414L8.828 34L31.998 34C32.702 34 33.352 33.63 33.714 33.03C34.076 32.426 34.094 31.68 33.764 31.058L29.57 23.196L33.764 15.332C34.094 14.71 34.076 13.964 33.714 13.362C33.352 12.76 32.702 12.39 31.998 12.39L30.438 12.39L35.414 7.414z" />
    <glyph glyph-name="info"
      unicode="&#xF121;"
      horiz-adv-x="40" d=" M20 23C21.106 23 22 22.104 22 21L22 13C22 11.896 21.106 11 20 11C18.894 11 18 11.896 18 13L18 21C18 22.104 18.894 23 20 23zM21.4004 28.42C21.6024 28.22 21.7404 28 21.8424 27.76C21.9424 27.52 22.0004 27.26 22.0004 27C22.0004 26.86 21.9804 26.74 21.9604 26.6C21.9424 26.48 21.9004 26.36 21.8424 26.24C21.8004 26.12 21.7404 26 21.6604 25.9C21.5804 25.78 21.5004 25.68 21.4004 25.58C21.3204 25.5 21.2204 25.42 21.1024 25.34C21.0004 25.26 20.8804 25.2 20.7624 25.16C20.6404 25.1 20.5224 25.06 20.3804 25.04C20.2624 25.02 20.1204 25 20.0004 25C19.4804 25 18.9604 25.22 18.5804 25.58C18.2204 25.96 18.0004 26.46 18.0004 27C18.0004 27.26 18.0604 27.52 18.1604 27.76C18.2624 28.02 18.4004 28.22 18.5804 28.42C19.0404 28.88 19.7404 29.08 20.3804 28.96C20.5224 28.94 20.6404 28.9 20.7624 28.84C20.8804 28.8 21.0004 28.74 21.1024 28.66C21.2204 28.58 21.3204 28.5 21.4004 28.42zM20 8C13.382 8 8 13.382 8 20C8 26.618 13.382 32 20 32C26.618 32 32 26.618 32 20C32 13.382 26.618 8 20 8M20 36C11.178 36 4 28.822 4 20C4 11.178 11.178 4 20 4C28.822 4 36 11.178 36 20C36 28.822 28.822 36 20 36" />
    <glyph glyph-name="link"
      unicode="&#xF122;"
      horiz-adv-x="40" d=" M36.9547454 36.96012126C38.9200708 34.99729618 40.0027502 32.38686384 40.0027502 29.60890376C40.0027502 26.82844326 38.9200708 24.21801094 36.9547454 22.25518586C35.9770834 21.28002436 34.3968218 21.28002436 33.4191598 22.25518586C32.4414978 23.23284778 32.4414978 24.81811032 33.4191598 25.79077142C34.4393288 26.81094036 35.001922 28.16616482 35.001922 29.60890376C35.001922 31.04914228 34.4393288 32.40436674 33.4191598 33.4245357C31.3138112 35.52488356 27.8907442 35.52488356 25.7853956 33.4245357L17.24648132 24.88312108C15.14363306 22.7777724 15.14363306 19.3547054 17.24648132 17.2493568C18.22414324 16.2741952 18.22414324 14.6889328 17.24648132 13.7137712C16.75890058 13.2261904 16.11879456 12.98115 15.47868854 12.98115C14.83858254 12.98115 14.19847652 13.2261904 13.71089576 13.7137712C9.6577245 17.769443 9.6577245 24.36553536 13.71089576 28.41870664L22.24981 36.96012126C26.3004808 41.010792116 32.8990736 41.015792944 36.9547454 36.96012126zM22.750643 26.2918544C23.7283048 27.26951632 25.3085666 27.26951632 26.2862284 26.2918544C30.3393998 22.23868312 30.3393998 15.6400902 26.2862284 11.586919L17.74481386 3.0455044C15.78198878 1.0826794 13.16905602 0 10.39359636 0C7.61563628 0 5.00270354 1.0826794 3.03987846 3.0455044C-1.01329282 7.0986756 -1.01329282 13.6972686 3.03987846 17.7504398C4.01754038 18.7281018 5.6003025 18.7281018 6.57546402 17.7504398C7.55312594 16.7727778 7.55312594 15.1925162 6.57546402 14.2148542C4.47011534 12.1095056 4.47011534 8.6864386 6.57546402 6.58109C8.6808127 4.4757412 12.10387962 4.4757412 14.2092283 6.58109L22.750643 15.1225046C24.8559916 17.2278532 24.8559916 20.65092016 22.750643 22.75626884C21.772981 23.73393076 21.772981 25.31419248 22.750643 26.2918544z" />
    <glyph glyph-name="list"
      unicode="&#xF123;"
      horiz-adv-x="40" d=" M34 21.0396C35.106 21.0396 36 20.1456 36 19.0396C36 17.9336 35.106 17.0396 34 17.0396L16 17.0396C14.894 17.0396 14 17.9336 14 19.0396C14 20.1456 14.894 21.0396 16 21.0396L34 21.0396zM34 9.0396C35.106 9.0396 36 8.1456 36 7.0396C36 5.9336 35.106 5.0396 34 5.0396L16 5.0396C14.894 5.0396 14 5.9336 14 7.0396C14 8.1456 14.894 9.0396 16 9.0396L34 9.0396zM16 29.0396C14.894 29.0396 14 29.9336 14 31.0396C14 32.1456 14.894 33.0396 16 33.0396L26.322 33.0396L34 33.0396C35.106 33.0396 36 32.1456 36 31.0396C36 29.9336 35.106 29.0396 34 29.0396L26.322 29.0396L16 29.0396zM9.7598 20.1802C9.8398 20.0002 9.8998 19.8202 9.9398 19.6202C9.9798 19.4402 9.9998 19.2402 9.9998 19.0402C9.9998 18.2402 9.6798 17.4782 9.1198 16.9202C8.8398 16.6382 8.5198 16.4202 8.1378 16.2602C7.7798 16.1202 7.3998 16.0402 6.9998 16.0402C6.1998 16.0402 5.4398 16.3602 4.8798 16.9202C4.3198 17.4782 3.9998 18.2402 3.9998 19.0402C3.9998 19.2402 4.0198 19.4402 4.0598 19.6202C4.0998 19.8202 4.1598 20.0002 4.2178 20.1802C4.2998 20.3602 4.3998 20.5402 4.4998 20.7002C4.6198 20.8602 4.7398 21.0202 4.8798 21.1602C5.9998 22.2802 8.0198 22.2802 9.1198 21.1602C9.2598 21.0202 9.3798 20.8602 9.4998 20.7002C9.5998 20.5402 9.6998 20.3602 9.7598 20.1802zM8.6602 9.5396C8.8202 9.4196 8.9802 9.2996 9.1182 9.1616C9.6802 8.5996 10.0002 7.8396 10.0002 7.0396C10.0002 6.2416 9.6802 5.4996 9.1182 4.9196C8.8402 4.6396 8.5002 4.4196 8.1382 4.2596C7.7802 4.1196 7.4002 4.0396 7.0002 4.0396C6.6002 4.0396 6.2182 4.1196 5.8602 4.2596C5.4802 4.4196 5.1602 4.6396 4.8782 4.9196C4.2982 5.4996 4.0002 6.2416 4.0002 7.0396C4.0002 7.8216 4.3202 8.5996 4.8782 9.1616C5.0202 9.2996 5.1802 9.4196 5.3402 9.5396C5.5002 9.6396 5.6802 9.7416 5.8602 9.8216C6.0382 9.8796 6.2182 9.9396 6.4202 9.9796C6.7982 10.0596 7.2002 10.0596 7.5802 9.9796C7.7802 9.9396 7.9582 9.8796 8.1382 9.8216C8.3202 9.7416 8.5002 9.6396 8.6602 9.5396zM4.879 33.1606C5.981 34.2806 8.019 34.2806 9.119 33.1606C9.679 32.6006 10.001 31.8206 10.001 31.0386C10.001 30.2406 9.679 29.5006 9.119 28.9206C8.839 28.6386 8.519 28.4206 8.139 28.2606C7.779 28.1186 7.401 28.0386 7.001 28.0386C6.599 28.0386 6.219 28.1186 5.839 28.2606C5.481 28.4206 5.161 28.6386 4.879 28.9206C4.299 29.5006 4.001 30.2406 4.001 31.0386C4.001 31.8206 4.321 32.6006 4.879 33.1606z" />
    <glyph glyph-name="live"
      unicode="&#xF124;"
      horiz-adv-x="40" d=" M20 3C10.626 3 3 10.626 3 20C3 29.374 10.626 37 20 37C29.374 37 37 29.374 37 20C37 10.626 29.374 3 20 3zM20 33C12.832 33 7 27.168 7 20C7 12.832 12.832 7 20 7C27.168 7 33 12.832 33 20C33 27.168 27.168 33 20 33zM20 11C15.038 11 11 15.038 11 20C11 24.962 15.038 29 20 29C24.962 29 29 24.962 29 20C29 15.038 24.962 11 20 11zM20 25C17.242 25 15 22.756 15 20C15 17.244 17.242 15 20 15C22.758 15 25 17.244 25 20C25 22.756 22.758 25 20 25z" />
    <glyph glyph-name="lock"
      unicode="&#xF125;"
      horiz-adv-x="40" d=" M32.5 22.5V25.1C32.5 31.9 26.9 37.5 20.1 37.5H19.9C13.1 37.5 7.5 31.9 7.5 25.1V22.5C6.1 22.5 5 21.4 5 20V10C5 4.5 9.5 0 15 0H25C30.5 0 35 4.5 35 10V20C35 21.4 33.9 22.5 32.5 22.5zM12.5 22.5V25.1C12.5 29.2 15.8 32.5 19.9 32.5H20.1C24.2 32.5 27.5 29.2 27.5 25.1V22.5H12.5z" />
    <glyph glyph-name="menu"
      unicode="&#xF126;"
      horiz-adv-x="40" d=" M26.6208335 19.32442465C26.6208335 17.119524875 28.367396 15.31551595 30.5020835 15.31551595C32.636771 15.31551595 34.3833335 17.119524875 34.3833335 19.32442465C34.3833335 21.529324425 32.636771 23.333333325 30.5020835 23.333333325C28.367396 23.333333325 26.6208335 21.529324425 26.6208335 19.32442465M14.9770834 19.32442465C14.9770834 17.119524875 16.723645925 15.31551595 18.858333425 15.31551595C20.99302095 15.31551595 22.73958345 17.119524875 22.73958345 19.32442465C22.73958345 21.529324425 20.99302095 23.333333325 18.858333425 23.333333325C16.723645925 23.333333325 14.9770834 21.529324425 14.9770834 19.32442465M11.095833375 19.32442465C11.095833375 21.529324425 9.349270875 23.333333325 7.21458335 23.333333325C5.07989585 23.333333325 3.333333325 21.529324425 3.333333325 19.32442465C3.333333325 17.119524875 5.07989585 15.31551595 7.21458335 15.31551595C9.349270875 15.31551595 11.095833375 17.119524875 11.095833375 19.32442465" />
    <glyph glyph-name="modActions"
      unicode="&#xF127;"
      horiz-adv-x="40" d=" M28 24.75L12 24.75C11.172 24.75 10.5 25.422 10.5 26.25C10.5 27.078 11.172 27.75 12 27.75L28 27.75C28.828 27.75 29.5 27.078 29.5 26.25C29.5 25.422 28.828 24.75 28 24.75M28 18.75L12 18.75C11.172 18.75 10.5 19.422 10.5 20.25C10.5 21.078 11.172 21.75 12 21.75L28 21.75C28.828 21.75 29.5 21.078 29.5 20.25C29.5 19.422 28.828 18.75 28 18.75M28 12.75L12 12.75C11.172 12.75 10.5 13.422 10.5 14.25C10.5 15.078 11.172 15.75 12 15.75L28 15.75C28.828 15.75 29.5 15.078 29.5 14.25C29.5 13.422 28.828 12.75 28 12.75M34.548 33.924L20.548 37.924C20.19 38.026 19.81 38.026 19.452 37.924L5.452 33.924C4.592 33.678 4 32.892 4 32L4 18C4 6.624 18.82 2.258 19.452 2.076C19.63 2.026 19.814 2 20 2C20.186 2 20.37 2.026 20.548 2.076C21.18 2.258 36 6.624 36 18L36 32C36 32.892 35.408 33.678 34.548 33.924" />
    <glyph glyph-name="modSettings"
      unicode="&#xF128;"
      horiz-adv-x="40" d=" M20 25.5C16.966 25.5 14.5 23.034 14.5 20C14.5 16.966 16.966 14.5 20 14.5C23.034 14.5 25.5 16.966 25.5 20C25.5 23.034 23.034 25.5 20 25.5M30 18.5L28.348 18.5C28.128 17.274 27.654 16.138 26.966 15.154L28.132 13.99C28.718 13.404 28.718 12.456 28.132 11.87C27.84 11.576 27.456 11.43 27.072 11.43C26.688 11.43 26.304 11.576 26.01 11.87L24.846 13.034C23.862 12.346 22.726 11.872 21.5 11.652L21.5 10C21.5 9.172 20.828 8.5 20 8.5C19.172 8.5 18.5 9.172 18.5 10L18.5 11.652C17.274 11.872 16.138 12.346 15.154 13.034L13.99 11.87C13.696 11.576 13.312 11.43 12.928 11.43C12.544 11.43 12.162 11.576 11.868 11.87C11.282 12.456 11.282 13.404 11.868 13.99L13.034 15.154C12.346 16.138 11.872 17.274 11.652 18.5L10 18.5C9.172 18.5 8.5 19.172 8.5 20C8.5 20.828 9.172 21.5 10 21.5L11.652 21.5C11.872 22.726 12.346 23.862 13.034 24.846L11.868 26.01C11.282 26.596 11.282 27.544 11.868 28.13C12.452 28.716 13.404 28.716 13.99 28.13L15.154 26.966C16.138 27.654 17.274 28.128 18.5 28.348L18.5 30C18.5 30.828 19.172 31.5 20 31.5C20.828 31.5 21.5 30.828 21.5 30L21.5 28.348C22.726 28.128 23.862 27.654 24.846 26.966L26.01 28.13C26.596 28.716 27.546 28.716 28.132 28.13C28.718 27.544 28.718 26.596 28.132 26.01L26.966 24.846C27.654 23.862 28.128 22.726 28.348 21.5L30 21.5C30.828 21.5 31.5 20.828 31.5 20C31.5 19.172 30.828 18.5 30 18.5M34.55 33.924L20.55 37.924C20.19 38.026 19.81 38.026 19.45 37.924L5.45 33.924C4.592 33.678 4 32.892 4 32L4 18C4 6.624 18.82 2.258 19.45 2.076C19.63 2.026 19.816 2 20 2C20.184 2 20.37 2.026 20.55 2.076C21.18 2.258 36 6.624 36 18L36 32C36 32.892 35.408 33.678 34.55 33.924" />
    <glyph glyph-name="moderate"
      unicode="&#xF129;"
      horiz-adv-x="40" d=" M3.76 33.36V22A23.06 23.06 0 0 1 19.76 0L20 0L20.16 0A23.06 23.06 0 0 1 36.16 22V33.36A23.14 23.14 0 0 0 20 40A23.14 23.14 0 0 0 3.76 33.36" />
    <glyph glyph-name="op"
      unicode="&#xF12A;"
      horiz-adv-x="40" d=" M15.3576300333333 15.03625C14.8276300333333 14.50625 13.9388800333333 14.55125 13.4701300333333 15.17375C13.0863800333333 15.685 13.2051300333333 16.42 13.6576300333333 16.87125L16.7551300333333 19.96875C17.2063800333333 20.42125 17.9413800333333 20.54 18.4526300333333 20.155C19.0751300333333 19.6875 19.1201300333333 18.79875 18.5901300333333 18.26875L15.3576300333333 15.03625zM17.7326300333333 26.25L24.8038800333333 19.17875L6.2151300333333 2.405C4.7438800333333 1.0775 2.4913800366667 1.135 1.0901300366667 2.53625C-0.311119963 3.9375 -0.3686199633333 6.19 0.9588800366667 7.66125L17.7326300333333 26.25zM30.5895387333333 39.8357957296667C34.6157886666667 39.11829573 37.8695386666667 35.8645457333333 38.5857886666667 31.8382957333333C39.7595386666667 25.2520457333333 34.4757886666667 19.5582957333333 28.0045387333333 20.0270457333333C27.9957887333333 20.0307957333333 27.9882887333333 20.0345457333333 27.9795387333333 20.0382957333333L18.7895387333333 29.2282957333333C18.7857887333333 29.2370457333333 18.7820387333333 29.2457957333333 18.7770387333333 29.2545457333333C18.3082887333333 35.7257957333333 24.0020387333333 41.00954573 30.5895387333333 39.8357957296667z" />
    <glyph glyph-name="outboundLink"
      unicode="&#xF12B;"
      horiz-adv-x="40" d=" M32 18.46A2 2 0 0 1 30 16.46V12A2 2 0 0 0 28 10H12A2 2 0 0 0 10 12V28A2 2 0 0 0 12 30H16.46A2 2 0 0 1 16.46 34H12A6 6 0 0 1 6 28V12A6 6 0 0 1 12 6H28A6 6 0 0 1 34 12V16.46A2 2 0 0 1 32 18.46z M35.82 34.76A2 2 0 0 1 34 36H26A2 2 0 0 1 26 32H29.18L18.76 21.62A2 2 0 1 1 21.58 18.8L32 29.18V26A2 2 0 0 1 36 26V34A2 2 0 0 1 35.82 34.76z" />
    <glyph glyph-name="pencil"
      unicode="&#xF12C;"
      horiz-adv-x="40" d=" M31.5 24.33075L24 31.83075L25.616 33.44675C27.687 35.51775 31.045 35.51775 33.116 33.44675C35.187 31.37575 35.187 28.01775 33.116 25.94675L31.5 24.33075zM22.732 30L30.232 22.5L14.5 6.768L7 14.268L22.732 30zM5.007 13L12.225 5.782L2 2.775L5.007 13z" />
    <glyph glyph-name="photos"
      unicode="&#xF12D;"
      horiz-adv-x="40" d=" M20.49 6.1975L28.37 16.84C28.5925 17.1425 28.9425 17.3275 29.3175 17.3425C29.7175 17.395 30.06 17.2075 30.31 16.925L35.005 11.6325L35.005 5L20.3575 5C20.2 5.4 20.23 5.8475 20.49 6.1975L20.49 6.1975zM5 11.235L13.1425 22.9375C13.375 23.2775 13.8525 23.4425 14.185 23.475C14.6 23.47 14.985 23.2575 15.2125 22.9125L22.325 12.0525L17.105 5L5 5L5 11.235zM31 28.975C31 26.63 29.0975 24.725 26.75 24.725C24.4025 24.725 22.5025 26.63 22.5025 28.975C22.5025 31.325 24.4025 33.2275 26.75 33.2275C29.0975 33.2275 31 31.325 31 28.975L31 28.975zM35 40L5 40C2.2425 40 0 37.7575 0 35L0 5C0 2.245 2.2425 0 5 0L35 0C37.755 0 40 2.245 40 5L40 5.28L40 5.7475L40 35C40 37.7575 37.755 40 35 40L35 40z" />
    <glyph glyph-name="planet"
      unicode="&#xF12E;"
      horiz-adv-x="40" d=" M31.6572 8.2004C30.6932 7.2424 25.2652 8.8804 17.1032 17.0404C8.9412 25.2064 7.2972 30.6284 8.2632 31.5924C8.7132 32.0424 9.8572 32.1584 11.8252 31.2964C11.2332 30.8644 10.6612 30.3984 10.1332 29.8684C10.1072 29.8404 10.0832 29.8104 10.0532 29.7804C11.1512 27.1464 13.7892 23.1824 18.5192 18.4544C23.2412 13.7324 27.2092 11.0924 29.8492 9.9944C29.8752 10.0204 29.9052 10.0444 29.9332 10.0724C30.4632 10.6024 30.9292 11.1744 31.3572 11.7644C32.2192 9.7944 32.1052 8.6504 31.6572 8.2004M33.5052 16.2004C34.8132 20.9084 33.6272 26.1724 29.9332 29.8684C27.2872 32.5124 23.7732 33.9704 20.0332 33.9704C18.7372 33.9704 17.4712 33.7844 16.2572 33.4464C11.4612 36.4804 7.8352 36.8204 5.4352 34.4204C2.8072 31.7944 4.1472 27.6164 6.5732 23.6624C5.2892 18.9744 6.4552 13.7484 10.1332 10.0724C12.7772 7.4264 16.2912 5.9704 20.0332 5.9704C21.3072 5.9704 22.5492 6.1644 23.7472 6.4964C26.1712 5.0124 28.6812 3.9364 30.8632 3.9364C32.2312 3.9364 33.4732 4.3604 34.4852 5.3724C36.8832 7.7724 36.5412 11.4024 33.5052 16.2004" />
    <glyph glyph-name="plus"
      unicode="&#xF12F;"
      horiz-adv-x="40" d=" M32 24L24 24L24 32C24 33.106 23.106 34 22 34L18 34C16.894 34 16 33.106 16 32L16 24L8 24C6.896 24 6 23.106 6 22L6 18C6 16.894 6.896 16 8 16L16 16L16 8C16 6.894 16.894 6 18 6L22 6C23.106 6 24 6.894 24 8L24 16L32 16C33.106 16 34 16.894 34 18L34 22C34 23.106 33.106 24 32 24" />
    <glyph glyph-name="premium"
      unicode="&#xF130;"
      horiz-adv-x="40" d=" M27.07 8.43C23.714 7.942 21.304 6.946 20 6.288V16.514A4 4 0 0 1 16 20.514H8.434C8.522 21.488 8.586 22.546 8.586 23.772C8.586 27.156 7.608 29.708 6.818 31.216L9.6 33.998H20V24.514A4 4 0 0 1 24 20.514H31.566C31.686 19.174 31.854 18.018 32.006 17.03C32.2 15.766 32.37 14.676 32.37 13.54C32.37 11.45 30.712 8.958 27.07 8.43M37.126 32.928L32.642 37.412A2 2 0 0 1 31.228 37.998H8.772A2 2 0 0 1 7.358 37.412L2.872 32.928A2 2 0 0 1 2.734 30.254C2.752 30.232 4.586 27.854 4.586 23.772C4.586 21.164 4.296 19.292 4.04 17.642C3.828 16.274 3.628 14.982 3.628 13.54C3.628 9.662 6.626 5.302 12.356 4.472C16.528 3.864 18.864 2.348 18.878 2.342A2.032 2.032 0 0 1 21.112 2.334C21.134 2.348 23.472 3.864 27.644 4.472C33.372 5.302 36.37 9.662 36.37 13.54C36.37 14.982 36.172 16.274 35.958 17.642C35.702 19.292 35.414 21.164 35.414 23.772C35.414 27.838 37.2 30.17 37.266 30.254A1.9979999999999998 1.9979999999999998 0 0 1 37.126 32.928" />
    <glyph glyph-name="promoted"
      unicode="&#xF131;"
      horiz-adv-x="40" d=" M34.766 33.84762148C34.018 34.15762148 33.158 33.98562148 32.586 33.41362148L30.992 31.81962148L8.472 26.62362148L7.22 27.58562148C6.618 28.04962148 5.802 28.13362148 5.118 27.79362148C4.434 27.45762148 4 26.76162148 4 25.99962148L4 15.9996214C4 15.2376214 4.434 14.5416214 5.118 14.2056214C5.802 13.8676214 6.62 13.9476214 7.222 14.4156214L8.47 15.3776214L12 14.5636214L12 7.9996214C12 6.8956214 12.894 5.9996214 14 5.9996214L18 5.9996214C19.106 5.9996214 20 6.8956214 20 7.9996214L20 12.7176214L30.992 10.1816214L32.586 8.5856214C32.97 8.2036214 33.48 7.9996214 34 7.9996214C34.258 7.9996214 34.518 8.0496214 34.766 8.1516214C35.514 8.4616214 36 9.1916214 36 9.9996214L36 31.99962148C36 32.80762148 35.514 33.53762148 34.766 33.84762148" />
    <glyph glyph-name="remove"
      unicode="&#xF132;"
      horiz-adv-x="40" d=" M27.1118122 11C27.1118122 10.448 26.6566818 10 26.0958962 10C25.5351104 10 25.07998 10.448 25.07998 11L25.07998 22C25.07998 22.552 25.5351104 23 26.0958962 23C26.6566818 23 27.1118122 22.552 27.1118122 22L27.1118122 11zM21.016316 11C21.016316 10.448 20.5611856 10 20.0004 10C19.43961436 10 18.98448398 10.448 18.98448398 11L18.98448398 22C18.98448398 22.552 19.43961436 23 20.0004 23C20.5611856 23 21.016316 22.552 21.016316 22L21.016316 11zM14.92081992 11C14.92081992 10.448 14.46568954 10 13.9049039 10C13.34411826 10 12.88898788 10.448 12.88898788 11L12.88898788 22C12.88898788 22.552 13.34411826 23 13.9049039 23C14.46568954 23 14.92081992 22.552 14.92081992 22L14.92081992 11zM30.984484 28C31.5473014 28 32.0004 27.552 32.0004 27L32.0004 7C32.0004 5.346 30.632977 4 28.952652 4L11.04814806 4C9.36782296 4 8.0004 5.346 8.0004 7L8.0004 27C8.0004 27.552 8.45349854 28 9.01631602 28L30.984484 28zM30.98317 34C31.5439082 34 31.999 33.552 31.999 33L31.999 31C31.999 30.448 31.5439082 30 30.98317 30L9.01483002 30C8.45409184 30 7.999 30.448 7.999 31L7.999 33C7.999 33.552 8.45409184 34 9.01483002 34L15.02651206 34L16.53197214 35.666C16.72497986 35.878 17.00128562 36 17.291813 36L22.7082186 36C22.9967144 36 23.2730202 35.878 23.4680596 35.666L24.971488 34L30.98317 34z" />
    <glyph glyph-name="report"
      unicode="&#xF133;"
      horiz-adv-x="40" d=" M29.5722 23.1962L33.7662 31.0582C34.0962 31.6782 34.0762 32.4262 33.7142 33.0302C33.3542 33.6322 32.7022 34.0002 32.0002 34.0002L8.0002 34.0002C6.8942 34.0002 6.0002 33.1042 6.0002 32.0002L6.0002 22.8262L6.0002 14.3922L6.0002 6.3922C6.0002 5.2862 6.8942 4.3922 8.0002 4.3922C9.1062 4.3922 10.0002 5.2862 10.0002 6.3922L10.0002 12.3922L32.0002 12.3922C32.7022 12.3922 33.3542 12.7602 33.7142 13.3622C34.0762 13.9642 34.0962 14.7122 33.7662 15.3322L29.5722 23.1962z" />
    <glyph glyph-name="save"
      unicode="&#xF134;"
      horiz-adv-x="40" d=" M26.501 17.524L22.703 17.524L22.703 13.726C22.703 12.199 21.712 11.25 20.226 11.25C18.74 11.25 17.751 12.199 17.751 13.726L17.751 17.524L13.977 17.524C12.45 17.524 11.5 18.513 11.5 19.999C11.5 21.486 12.45 22.476 13.977 22.476L17.751 22.476L17.751 26.273C17.751 27.801 18.74 28.75 20.226 28.75C21.712 28.75 22.703 27.801 22.703 26.273L22.703 22.476L26.501 22.476C28.028 22.476 28.977 21.486 28.977 19.999C28.977 18.513 28.028 17.524 26.501 17.524M26.5 37.5L9.001 37.5L4 37.5C6.734 37.5 9 35.283 9 32.55L9 32.5L9 0L20.251 7.5L31.5 0L31.5 32.5C31.5 35.261 29.262 37.5 26.5 37.5" />
    <glyph glyph-name="share"
      unicode="&#xF135;"
      horiz-adv-x="40" d=" M22.8675 35.60875C22.06375 36.33625 20.625 35.76625 20.625 34.681875L20.625 28.180625C20 28.04875 18.464375 27.845 17.35125 27.558125C7.7175 25.074375 1.185625 16.2 1.185625 6.25125C1.185625 5.04125 2.61625 4.538125 3.326875 5.5175C7.3475 11.056875 13.75 14.87625 20.625 15.683125L20.625 10.318125C20.625 9.23375 22.06375 8.66375 22.8675 9.39125L37.34625 22.5L22.8675 35.60875z" />
    <glyph glyph-name="source"
      unicode="&#xF136;"
      horiz-adv-x="40" d=" M0 0L40 0L40 40L0 40z M30.000625 26.46327564L17.500625 13.96425L13.964375 17.49925L26.465 29.999875L20.000625 29.999875L20.000625 34.999875L35.000625 34.999875L35.000625 19.999875L30.000625 19.999875L30.000625 26.46327564zM29.355625 14.999875L34.559375 14.999875C32.860625 7.842375 26.420625 2.499875 18.750625 2.499875C9.790625 2.499875 2.500625 9.789875 2.500625 18.749875C2.500625 26.419875 7.843125 32.859875 15.000625 34.558625L15.000625 29.354875C10.635625 27.807375 7.500625 23.638625 7.500625 18.749875C7.500625 12.546125 12.548125 7.499875 18.750625 7.499875C23.639375 7.499875 27.808125 10.634875 29.355625 14.999875z" />
    <glyph glyph-name="spam"
      unicode="&#xF137;"
      horiz-adv-x="40" d=" M24.707 10.707C25.097 10.317 25.097 9.683 24.707 9.293C24.511 9.097 24.255 8.999 23.999 8.999C23.745 8.999 23.489 9.097 23.293 9.293L19.999 12.585L16.707 9.293C16.511 9.097 16.255 8.999 15.999 8.999C15.745 8.999 15.489 9.097 15.293 9.293C14.903 9.683 14.903 10.317 15.293 10.707L18.585 13.999L15.293 17.293C14.903 17.683 14.903 18.317 15.293 18.707C15.683 19.097 16.317 19.097 16.707 18.707L19.999 15.415L23.293 18.707C23.683 19.097 24.317 19.097 24.707 18.707C25.097 18.317 25.097 17.683 24.707 17.293L21.415 13.999L24.707 10.707zM31.999 23.999C34.209 23.999 35.999 22.209 35.999 19.999L35.999 7.999C35.999 5.791 34.209 3.999 31.999 3.999L7.999 3.999C5.791 3.999 3.999 5.791 3.999 7.999L3.999 19.999C3.999 22.209 5.791 23.999 7.999 23.999L31.999 23.999zM8 26C6.458 26 5.064 25.398 4 24.44L4 26C4 26.828 4.252 27.598 4.684 28.236C4.97 28.662 5.338 29.03 5.764 29.316C6.402 29.748 7.172 30 8 30L32 30C32.828 30 33.598 29.748 34.236 29.316C34.45 29.172 34.648 29.01 34.828 28.828C35.01 28.648 35.174 28.45 35.316 28.236C35.748 27.598 36 26.828 36 26L36 24.44C34.936 25.398 33.542 26 32 26L8 26zM8 32C6.458 32 5.064 31.398 4 30.44L4 32C4 34.208 5.792 36 8 36L32 36C34.208 36 36 34.208 36 32L36 30.44C34.936 31.398 33.542 32 32 32L8 32z" />
    <glyph glyph-name="sticky"
      unicode="&#xF138;"
      horiz-adv-x="40" d=" M0 0L14.3 10.8L10.8 14.3z M23 12.4L33.8 23.2C35.8 22.1 38.3 22.4 40 24.1L24.1 40C22.4 38.3 22.1 35.8 23.2 33.8L12.4 23C10.4 24.1 7.9 23.8 6.2 22.1L22.1 6.2C23.8 7.9 24.1 10.4 23 12.4z" />
    <glyph glyph-name="tag"
      unicode="&#xF139;"
      horiz-adv-x="40" d=" M10.28587726 33.23622162C11.50634356 32.01575532 11.50634356 30.03727054 10.28587726 28.81680424C9.06541096 27.59633792 7.08692618 27.59633792 5.86645988 28.81680424C4.64599358 30.03727054 4.64599358 32.01575532 5.86645988 33.23622162C7.08692618 34.45668792 9.06541096 34.45668792 10.28587726 33.23622162zM2.02899138 34.10808428L2 21.92675576C2.0007071 20.89084432 2.38325188 19.869075 3.1158145 19.1365124L19.79858478 2.4537422C21.3245212 0.9278056 23.7979808 0.9278056 25.32321 2.453035L37.4762544 14.6060792C39.0014836 16.1313086 39.0014836 18.604768 37.4755472 20.13070454L20.792777 36.81347482C20.0602142 37.54603744 19.09572064 37.98585786 18.0591021 37.98585786L5.9209071 38C3.7628172 38 2.02828428 36.26546706 2.02899138 34.10808428z" />
    <glyph glyph-name="text"
      unicode="&#xF13A;"
      horiz-adv-x="40" d=" M31.2996882 28.7456337L8.76391272 28.7456337C8.0728156 28.7456337 7.51192518 29.3065241 7.51192518 29.99762122C7.51192518 30.68871834 8.0728156 31.24960876 8.76391272 31.24960876L31.2996882 31.24960876C31.9907854 31.24960876 32.5516758 30.68871834 32.5516758 29.99762122C32.5516758 29.3065241 31.9907854 28.7456337 31.2996882 28.7456337M31.2996882 21.23370852L8.76391272 21.23370852C8.0728156 21.23370852 7.51192518 21.79459892 7.51192518 22.48569604C7.51192518 23.17679316 8.0728156 23.73768358 8.76391272 23.73768358L31.2996882 23.73768358C31.9907854 23.73768358 32.5516758 23.17679316 32.5516758 22.48569604C32.5516758 21.79459892 31.9907854 21.23370852 31.2996882 21.23370852M26.2917382 13.7217834L8.76391272 13.7217834C8.0728156 13.7217834 7.51192518 14.2826738 7.51192518 14.9737708C7.51192518 15.664868 8.0728156 16.2257584 8.76391272 16.2257584L26.2917382 16.2257584C26.9828352 16.2257584 27.5437256 15.664868 27.5437256 14.9737708C27.5437256 14.2826738 26.9828352 13.7217834 26.2917382 13.7217834M35.2209132 39.998497614964L4.84268776 39.998497614964C2.17094638 39.998497614964 0 37.82755124 0 35.15831382L0 4.8376798C0 3.1650244 0.84634357 1.6325918 2.26108948 0.7386726C3.0423297 0.2503976 3.92122494 0 4.820152 0C5.54880874 0 6.29248932 0.1652624 6.99610632 0.505803L15.62981232 4.9578706L35.0556508 4.9578706C37.7223842 4.9578706 40.063601 7.2990874 40.063601 9.9658208L40.063601 35.15831382C40.063601 37.82755124 37.8926546 39.998497614964 35.2209132 39.998497614964" />
    <glyph glyph-name="unpin"
      unicode="&#xF13B;"
      horiz-adv-x="40" d=" M8.3 24L6.58 22.28A2 2 0 0 1 6.58 19.46L9.52 16.52L10.76 15.28L1.2 2.6A1 1 0 0 1 2.6 1.2L15.34 10.76L16.58 9.52L19.52 6.58A2 2 0 0 1 22.34 6.58L24.06 8.3A2 2 0 0 1 24.4 8.76L8.78 24.4A2 2 0 0 1 8.3 24z M26.36 16.48L30.22 20.34L33.78 19.42A2 2 0 0 1 34.28 19.42A2 2 0 0 1 35.7 20L37.42 21.72A2 2 0 0 1 37.42 24.54L34.48 27.42L27.42 34.48L24.5 37.42A2 2 0 0 1 21.68 37.42L20 35.7A2 2 0 0 1 19.48 33.7L20.4 30.14L16.48 26.36L5.42 37.42A2 2 0 0 1 2.58 34.58L34.58 2.58A2 2 0 0 1 37.4 5.4z" />
    <glyph glyph-name="upvote"
      unicode="&#xF13C;"
      horiz-adv-x="40" d=" M35.14 21.38L20.72 36.68A1.04 1.04 0 0 1 19.26 36.68L4.86 21.38A2 2 0 0 1 6.32 18H14V5A1 1 0 0 1 15 4H25A1 1 0 0 1 26 5V18H33.68A2 2 0 0 1 35.14 21.38z" />
    <glyph glyph-name="video"
      unicode="&#xF13D;"
      horiz-adv-x="40" d=" M44.2057142 33.86285714C43.28 34.36 42.1485714 34.3 41.2742858 33.72L31.4285714 27.15714286L31.4285714 34.09428572C31.4285714 36.79714286 29.2285714 39 26.5257142 39L4.90285714 39C2.2 39 0 36.79714286 0 34.09428572L0 5.8571428C0 3.1542858 2.2 0.9514286 4.90285714 0.9514286L26.5257142 0.9514286C29.2285714 0.9514286 31.4285714 3.1542858 31.4285714 5.8571428L31.4285714 12.7228572L41.2857142 6.2228572C41.7628572 5.9114286 42.3085714 5.7514286 42.8571428 5.7514286C43.3228572 5.7514286 43.7885714 5.8657142 44.2114286 6.0914286C45.1371428 6.5914286 45.7142858 7.5571428 45.7142858 8.6085714L45.7142858 31.34285714C45.7142858 32.39714286 45.1342858 33.36571428 44.2057142 33.86285714" />
  </font>
</defs>
</svg>
